<svg version="1.2" xmlns="http://www.w3.org/2000/svg" viewBox="0 0 252 44" width="252" height="44"><style>.a{fill:#f0f0f0}</style><path class="a" d="m28.1 1.4l-1.1 16.9q-1-0.2-4.2-0.5-2-0.1-4.6-0.1l-0.5 8.7q2.8 0 8.6-0.4-0.3 1.2-0.9 3.9-0.3 1.7-0.6 4-0.8-0.2-3.5-0.5-2-0.2-3.9-0.1l-0.3 9.3h-15l-0.9-21q-0.2-7.3-1.2-20.2z"/><path fill-rule="evenodd" class="a" d="m62.9 42.6h-14.7l-1-3.5q-0.6 0.2-3.1 1.6-1.6 1-3.5 2.7l-1.5-3.2q-0.5-1-1.3-2.8l-1.5 5.2h-7.8q1.7-6.6 5.3-21.9 2.2-10.2 3.7-19.3h16.2q0.7 4.2 4.1 19.6 1.8 8.1 5.1 21.6zm-16.9-8.8q-0.5-1.4-1.7-4.6-0.7-1.8-2.1-4.9-0.6 1.6-1.9 5.1-0.7 2.1-1.7 5.6 0.8 0 3.6-0.3 1.7-0.3 3.8-0.9z"/><path class="a" d="m89.5 18.3q-2-0.5-3-0.5-1.3 0-2.4 0.9-1.2 1-1.2 2.7 0 1.3 2.3 5 2.3 3.6 2.3 6.7 0 4.5-3.4 7.4-3.3 2.7-8 2.7-4.4 0-6.5-0.6-0.3-1.2-0.9-4-0.3-1.5-1-4 2.9 0.7 4 0.7 4 0 4-3 0-2.2-1.7-4-2.6-2.3-5.2-4.6-5.1-4.5-5.1-10.7 0-6.5 4.8-9.8 4.2-2.9 11.2-2.9 4 0 9 1.1z"/><path class="a" d="m124.3 1.4l-0.7 16.9q-1.1-0.2-3.4-0.4-1.4-0.1-4.6-0.2-0.2 1.6-0.6 7.7-0.3 5.8-0.9 17.2h-13q-0.3-5.4-0.8-17-0.3-4.1-0.6-7.9l-4.3 0.2-3.8 0.4-0.7-16.9z"/><path class="a" d="m154 1.4l-1.1 16.9q-1-0.2-4.2-0.5-2-0.1-4.6-0.1l-0.5 8.7q2.8 0 8.6-0.4-0.3 1.2-0.9 3.9-0.3 1.7-0.6 4-0.8-0.2-3.5-0.5-2-0.2-3.9-0.1l-0.3 9.3h-15l-0.9-21q-0.2-7.3-1.2-20.2z"/><path class="a" d="m184.2 1.4l-1.2 17q-1-0.2-4.3-0.6-2.2-0.2-4.9-0.3l-0.4 5.2q2.9 0.1 9.6-0.2-0.3 1-0.9 3.7-0.4 1.7-0.7 3.8-0.8-0.2-3.9-0.4-1.4-0.1-4.3-0.1l-0.2 6q2 0 7.4-0.4 1 0 3.3-0.6-0.2 0.8-1 4-0.3 1.6-0.9 4.1h-24l-0.8-21q-0.2-7.2-1-20.2z"/><path class="a" d="m214.7 1.4l-1.1 17q-1-0.2-4.3-0.6-2.3-0.2-5-0.3l-0.4 5.2q3 0.1 9.7-0.2-0.3 1-1 3.7-0.4 1.7-0.7 3.8-0.7-0.2-3.8-0.4-1.5-0.1-4.3-0.1l-0.3 6q2 0 7.4-0.4 1 0 3.4-0.6-0.3 0.8-1 4-0.4 1.6-0.9 4.1h-24.1l-0.8-21q-0.2-7.2-1-20.2z"/><path class="a" d="m251.8 1.4l-0.8 16.9q-1-0.2-3.3-0.4-1.4-0.1-4.6-0.2-0.2 1.6-0.6 7.7-0.3 5.8-1 17.2h-13q-0.2-5.4-0.8-17-0.2-4.1-0.5-7.9l-4.3 0.2-3.8 0.4-0.7-16.9z"/></svg>